<svg width="20" height="15" viewBox="0 0 20 15" fill="none" xmlns="http://www.w3.org/2000/svg">
<rect width="20" height="15" fill="#F5F5F5"/>
<g id="Home Page" clip-path="url(#clip0_0_1)">
<rect width="1440" height="4979" transform="translate(-941 -4774)" fill="#030637"/>
<g id="Frame 57">
<rect width="1440" height="271" transform="translate(-941 -66)" fill="#9747FF" fill-opacity="0.24"/>
<g id="Frame 56">
<g id="Frame 43">
<g id="Frame 41">
<g id="money-note" clip-path="url(#clip1_0_1)">
<g id="Group 52">
<rect id="Rectangle 10" x="1" y="1.5" width="18" height="12" rx="2" stroke="white" stroke-width="2"/>
<path id="Ellipse 11" d="M6 13.5C6 10.8333 4.66667 9.5 2 9.5" stroke="white" stroke-width="2"/>
<path id="Ellipse 12" d="M2 5.5C4.66667 5.5 6 4.16667 6 1.5" stroke="white" stroke-width="2"/>
<path id="Ellipse 13" d="M14 1.5C14 4.16667 15.3333 5.5 18 5.5" stroke="white" stroke-width="2"/>
<path id="Ellipse 14" d="M18 9.5C15.3333 9.5 14 10.8333 14 13.5" stroke="white" stroke-width="2"/>
<path id="Ellipse 3" d="M12 7.5C12 8.60457 11.1046 9.5 10 9.5C8.89543 9.5 8 8.60457 8 7.5C8 6.39543 8.89543 5.5 10 5.5C11.1046 5.5 12 6.39543 12 7.5Z" stroke="white" stroke-width="2" stroke-linecap="round" stroke-linejoin="round"/>
</g>
</g>
</g>
</g>
</g>
</g>
</g>
<defs>
<clipPath id="clip0_0_1">
<rect width="1440" height="4979" fill="white" transform="translate(-941 -4774)"/>
</clipPath>
<clipPath id="clip1_0_1">
<rect width="24" height="24" fill="white" transform="translate(-2 -4.5)"/>
</clipPath>
</defs>
</svg>
