<svg width="20" height="21" viewBox="0 0 20 21" fill="none" xmlns="http://www.w3.org/2000/svg">
<g id="Group 922">
<path id="Rectangle 939" d="M3 10.4634V15.4634M3 10.4634H10M3 10.4634V5.46338M17 10.4634V15.4634M17 10.4634H10M17 10.4634V5.46338M10 10.4634V5.46338M10 10.4634V15.4634" stroke="white" stroke-width="2"/>
<path id="Ellipse 111" d="M12 3.46338C12 4.56795 11.1046 5.46338 10 5.46338C8.89543 5.46338 8 4.56795 8 3.46338C8 2.35881 8.89543 1.46338 10 1.46338C11.1046 1.46338 12 2.35881 12 3.46338Z" stroke="white" stroke-width="2"/>
<path id="Ellipse 117" d="M5 3.46338C5 4.56795 4.10457 5.46338 3 5.46338C1.89543 5.46338 1 4.56795 1 3.46338C1 2.35881 1.89543 1.46338 3 1.46338C4.10457 1.46338 5 2.35881 5 3.46338Z" stroke="white" stroke-width="2"/>
<path id="Ellipse 118" d="M19 3.46338C19 4.56795 18.1046 5.46338 17 5.46338C15.8954 5.46338 15 4.56795 15 3.46338C15 2.35881 15.8954 1.46338 17 1.46338C18.1046 1.46338 19 2.35881 19 3.46338Z" stroke="white" stroke-width="2"/>
<path id="Ellipse 119" d="M12 17.4634C12 18.5679 11.1046 19.4634 10 19.4634C8.89543 19.4634 8 18.5679 8 17.4634C8 16.3588 8.89543 15.4634 10 15.4634C11.1046 15.4634 12 16.3588 12 17.4634Z" stroke="white" stroke-width="2"/>
<path id="Ellipse 115" d="M5 17.4634C5 18.5679 4.10457 19.4634 3 19.4634C1.89543 19.4634 1 18.5679 1 17.4634C1 16.3588 1.89543 15.4634 3 15.4634C4.10457 15.4634 5 16.3588 5 17.4634Z" stroke="white" stroke-width="2"/>
<path id="Ellipse 116" d="M19 17.4634C19 18.5679 18.1046 19.4634 17 19.4634C15.8954 19.4634 15 18.5679 15 17.4634C15 16.3588 15.8954 15.4634 17 15.4634C18.1046 15.4634 19 16.3588 19 17.4634Z" stroke="white" stroke-width="2"/>
</g>
</svg>
