<svg width="24" height="25" viewBox="0 0 24 25" fill="none" xmlns="http://www.w3.org/2000/svg">
<g id="home">
<g id="Group">
<path id="Vector" d="M10.4217 20.7607H6.42174C5.12562 20.756 4.07474 19.709 4.06522 18.4129V10.4564C4.06776 10.0225 4.26191 9.6119 4.59565 9.33463L5.3 8.81289C5.55714 8.53892 5.58329 8.12087 5.36229 7.817C5.14129 7.51312 4.73552 7.40919 4.39565 7.56941L3.67391 8.10854C2.94588 8.67186 2.51384 9.53595 2.5 10.4564V18.4216C2.50478 20.5855 4.25781 22.3385 6.42174 22.3433H10.4217C10.854 22.3433 11.2043 21.9929 11.2043 21.5607C11.2043 21.1285 10.854 20.7781 10.4217 20.7781V20.7607Z" fill="white"/>
<path id="Vector_2" d="M21.2913 10.4391C21.2822 9.52539 20.8642 8.66388 20.1522 8.09123L14.1435 3.29992C12.8231 2.23857 10.9421 2.23857 9.62174 3.29992L7.71739 4.68253C7.35961 4.93947 7.27785 5.43779 7.53478 5.79558C7.79172 6.15336 8.29004 6.23512 8.64783 5.97819L10.5783 4.53471C11.336 3.91091 12.4293 3.91091 13.187 4.53471L19.1957 9.32601C19.5415 9.60015 19.7458 10.0152 19.7522 10.4564V18.4217C19.7522 19.7183 18.701 20.7695 17.4043 20.7695H15.6217C15.4392 20.7695 15.2913 20.6215 15.2913 20.4391V16.8478C15.2913 15.7033 14.3661 14.7743 13.2217 14.7695H10.613C10.0619 14.7695 9.53324 14.9884 9.14349 15.3782C8.75374 15.7679 8.53478 16.2966 8.53478 16.8478V18.2217C8.53478 18.6539 8.88517 19.0043 9.31739 19.0043C9.74962 19.0043 10.1 18.6539 10.1 18.2217V16.8478C10.0977 16.7125 10.1498 16.582 10.2446 16.4855C10.3394 16.389 10.4691 16.3347 10.6043 16.3347H13.213C13.4916 16.3347 13.7174 16.5605 13.7174 16.8391V20.4391C13.7222 21.4874 14.5734 22.3347 15.6217 22.3347H17.3609C19.5268 22.3347 21.2826 20.5789 21.2826 18.413L21.2913 10.4391Z" fill="white"/>
</g>
</g>
</svg>
