<svg width="24" height="24" viewBox="0 0 24 24" fill="none" xmlns="http://www.w3.org/2000/svg">
<g id="user" clip-path="url(#clip0_142_331)">
<path id="Vector" d="M14.232 12.5281C15.792 11.5681 16.8 9.67214 16.8 7.92014C16.8 5.42414 14.76 2.64014 12 2.64014C9.24 2.64014 7.2 5.42414 7.2 7.92014C7.2 9.67214 8.208 11.5681 9.768 12.5281C6.072 13.5121 3.36 16.8961 3.36 20.8801C3.36 21.1441 3.576 21.3601 3.84 21.3601H20.16C20.424 21.3601 20.64 21.1441 20.64 20.8801C20.64 16.8961 17.928 13.5121 14.232 12.5281ZM8.16 7.92014C8.16 5.44814 10.2 3.60014 12 3.60014C13.8 3.60014 15.84 5.44814 15.84 7.92014C15.84 10.3921 13.8 12.2401 12 12.2401C10.2 12.2401 8.16 10.3921 8.16 7.92014ZM4.344 20.4001C4.584 16.3921 7.944 13.2001 12 13.2001C16.056 13.2001 19.416 16.3921 19.656 20.4001H4.344Z" fill="white"/>
<path id="Vector_2" d="M293.76 -189.6V214.56H-134.4V-189.6H293.76ZM295.68 -191.52H-136.32V216.48H295.68V-191.52Z" fill="#0000FF"/>
</g>
<defs>
<clipPath id="clip0_142_331">
<rect width="24" height="24" fill="white"/>
</clipPath>
</defs>
</svg>
